Coordinates
version=1
nRows=14
nColumns=40
inDegrees=yes

Units are S.I. units (second, meters, Newtons, ...)
If the header above contains a line with 'inDegrees', this indicates whether rotational values are in degrees (yes) or radians (no).

endheader
time	pelvis_tilt	pelvis_list	pelvis_rotation	pelvis_tx	pelvis_ty	pelvis_tz	hip_flexion_r	hip_adduction_r	hip_rotation_r	knee_angle_r	knee_angle_r_beta	ankle_angle_r	subtalar_angle_r	mtp_angle_r	hip_flexion_l	hip_adduction_l	hip_rotation_l	knee_angle_l	knee_angle_l_beta	ankle_angle_l	subtalar_angle_l	mtp_angle_l	lumbar_extension	lumbar_bending	lumbar_rotation	arm_flex_r	arm_add_r	arm_rot_r	elbow_flex_r	pro_sup_r	wrist_flex_r	wrist_dev_r	arm_flex_l	arm_add_l	arm_rot_l	elbow_flex_l	pro_sup_l	wrist_flex_l	wrist_dev_l
      4.10000000	     17.25647144	     -8.64824877	     -7.62036842	     -0.32056883	      0.82420229	     -1.02506082	     40.88562887	      7.35779611	    -12.02812396	      6.42436606	      0.11212634	      0.83086005	      0.00000000	      0.00000000	     25.57675356	    -11.95946661	     -9.67755395	     88.07706999	      1.53723487	     33.05802511	      0.00000000	      0.00000000	    -30.06832273	     -1.53939913	     10.80556675	     89.91580982	    -17.03546150	     33.73799792	     35.35342865	     82.72615216	      0.00000000	      0.00000000	     89.94700247	    -18.50595404	     38.21704292	     49.13028586	     78.08507546	      0.00000000	      0.00000000
      4.10500000	     17.25219903	     -8.65867233	     -7.64761539	     -0.32056628	      0.82405016	     -1.02494723	     40.84326043	      7.40657035	    -12.14083770	      6.31042725	      0.11013773	      0.73196906	      0.00000000	      0.00000000	     25.57849852	    -12.02104178	     -9.72393612	     88.10220568	      1.53767357	     33.00035085	      0.00000000	      0.00000000	    -30.09154159	     -1.56121419	     10.83813162	     89.91562343	    -17.01729896	     33.21470204	     35.38888743	     85.57651288	      0.00000000	      0.00000000	     89.94701432	    -18.52604397	     38.16704882	     49.23195747	     78.90960918	      0.00000000	      0.00000000
      4.11000000	     17.24195864	     -8.68461150	     -7.63070055	     -0.32053733	      0.82389031	     -1.02490502	     40.82203362	      7.43456908	    -12.16702283	      6.26550849	      0.10935375	      0.73376733	      0.00000000	      0.00000000	     25.62301489	    -12.06947448	     -9.71683513	     88.17364163	      1.53892036	     32.96415678	      0.00000000	      0.00000000	    -30.09988393	     -1.54333709	     10.85168083	     89.91557685	    -17.05675546	     33.29671435	     35.45509331	     85.21146648	      0.00000000	      0.00000000	     89.94722403	    -18.47573338	     38.02358899	     49.17776167	     81.17417595	      0.00000000	      0.00000000
      4.11500000	     17.24908467	     -8.66169140	     -7.62975429	     -0.32051341	      0.82376360	     -1.02484301	     40.80669065	      7.42383267	    -12.14543900	      6.26535254	      0.10935103	      0.76896971	      0.00000000	      0.00000000	     25.61144399	    -12.04864228	     -9.71707605	     88.16678416	      1.53880067	     33.03397359	      0.00000000	      0.00000000	    -30.11539244	     -1.57462140	     10.79572190	     89.91624844	    -16.99914716	     33.49522490	     35.40987485	     83.73547388	      0.00000000	      0.00000000	     89.94735506	    -18.51827895	     38.03533147	     49.21556354	     80.15644214	      0.00000000	      0.00000000
      4.12000000	     17.22100911	     -8.66797695	     -7.62310279	     -0.32049777	      0.82361712	     -1.02478493	     40.80719973	      7.43586705	    -12.16825364	      6.22191290	      0.10859287	      0.72909133	      0.00000000	      0.00000000	     25.65652506	    -12.07282850	     -9.71577188	     88.19083458	      1.53922043	     33.03382181	      0.00000000	      0.00000000	    -30.11195487	     -1.56824135	     10.76796553	     89.91601375	    -16.93138489	     33.20932661	     35.41027414	     84.99934537	      0.00000000	      0.00000000	     89.94747186	    -18.52248096	     37.87206766	     49.19453400	     81.91238688	      0.00000000	      0.00000000
      4.12500000	     17.21881225	     -8.67302558	     -7.61254982	     -0.32048221	      0.82345358	     -1.02468286	     40.79075468	      7.44672232	    -12.16847792	      6.19447651	      0.10811401	      0.66837017	      0.00000000	      0.00000000	     25.67565108	    -12.10061437	     -9.71732690	     88.22928699	      1.53989155	     33.04987191	      0.00000000	      0.00000000	    -30.12070046	     -1.56568909	     10.69513580	     89.91665606	    -16.83160688	     33.40282276	     35.40998342	     83.52399564	      0.00000000	      0.00000000	     89.94759676	    -18.59013365	     37.88752883	     49.27161926	     80.54319943	      0.00000000	      0.00000000
      4.13000000	     17.18576467	     -8.66980509	     -7.62810262	     -0.32050295	      0.82333724	     -1.02460761	     40.83822356	      7.44831166	    -12.20096795	      6.23846007	      0.10888167	      0.43169721	      0.00000000	      0.00000000	     25.71954606	    -12.12246336	     -9.73315209	     88.24914690	      1.54023818	     33.04276255	      0.00000000	      0.00000000	    -30.11209638	     -1.59300822	     10.69531063	     89.91661544	    -16.80056897	     33.10178245	     35.43598243	     84.95908595	      0.00000000	      0.00000000	     89.94775179	    -18.56641264	     37.73788832	     49.23370183	     81.98189693	      0.00000000	      0.00000000
      4.13500000	     17.18824798	     -8.67111947	     -7.62233411	     -0.32044608	      0.82322673	     -1.02450880	     40.80659161	      7.46701255	    -12.23990082	      6.22698746	      0.10868143	      0.44696852	      0.00000000	      0.00000000	     25.72173134	    -12.13160764	     -9.72260216	     88.26521562	      1.54051863	     33.05419433	      0.00000000	      0.00000000	    -30.12397060	     -1.60476121	     10.67524385	     89.91673355	    -16.76789066	     33.05389214	     35.42279949	     85.17433757	      0.00000000	      0.00000000	     89.94796296	    -18.57004500	     37.76103397	     49.28497834	     80.60423949	      0.00000000	      0.00000000
      4.14000000	     17.17354900	     -8.60562026	     -7.60177691	     -0.32038140	      0.82310463	     -1.02444344	     40.82316233	      7.41072434	    -12.27528102	      6.24420088	      0.10898186	      0.61741847	      0.00000000	      0.00000000	     25.74167461	    -12.07161351	     -9.74276404	     88.26622849	      1.54053631	     33.07146169	      0.00000000	      0.00000000	    -30.10866705	     -1.66737939	     10.56081960	     89.91677303	    -16.62451258	     32.91737497	     35.32290958	     85.23899809	      0.00000000	      0.00000000	     89.94803765	    -18.64140149	     37.76209248	     49.33011259	     80.60318309	      0.00000000	      0.00000000
      4.14500000	     17.16769858	     -8.57586266	     -7.60347892	     -0.32036520	      0.82299684	     -1.02438058	     40.82337078	      7.39180453	    -12.29489682	      6.26636184	      0.10936865	      0.56648827	      0.00000000	      0.00000000	     25.75219083	    -12.06590859	     -9.78937675	     88.28852980	      1.54092554	     33.02453034	      0.00000000	      0.00000000	    -30.10710192	     -1.71070393	     10.52916384	     89.91697660	    -16.61707886	     32.95199310	     35.40277029	     85.05181644	      0.00000000	      0.00000000	     89.94821341	    -18.60689471	     37.65865167	     49.25392944	     81.09807835	      0.00000000	      0.00000000
      4.15000000	     17.16051111	     -8.54204559	     -7.53133202	     -0.32028774	      0.82286736	     -1.02439230	     40.82357027	      7.31581839	    -12.27541987	      6.29801284	      0.10992106	      0.94953925	      0.00000000	      0.00000000	     25.79386152	    -11.98854802	     -9.70014931	     88.31344945	      1.54136047	     33.19106423	      0.00000000	      0.00000000	    -30.10521264	     -1.70634750	     10.29749085	     89.91772673	    -16.33879882	     33.40347975	     35.24036223	     80.61957944	      0.00000000	      0.00000000	     89.94815695	    -18.79159290	     37.75032632	     49.39688607	     77.29108881	      0.00000000	      0.00000000
      4.15500000	     17.13966966	     -8.51249883	     -7.62467247	     -0.32035340	      0.82281804	     -1.02417321	     40.84910565	      7.35737038	    -12.31464929	      6.30831141	      0.11010080	      0.61458566	      0.00000000	      0.00000000	     25.78453506	    -12.05567812	     -9.85245497	     88.29186067	      1.54098367	     33.06501118	      0.00000000	      0.00000000	    -30.09952515	     -1.82185552	     10.42607023	     89.91719091	    -16.48195090	     32.87082061	     35.36523285	     84.92242860	      0.00000000	      0.00000000	     89.94843207	    -18.65129742	     37.46587006	     49.35968430	     81.79544398	      0.00000000	      0.00000000
      4.16000000	     17.11738284	     -8.49474856	     -7.61397950	     -0.32029156	      0.82274875	     -1.02409428	     40.87098908	      7.34981952	    -12.41022161	      6.34226279	      0.11069337	      0.69695947	      0.00000000	      0.00000000	     25.81155249	    -12.05962632	     -9.86147367	     88.31167828	      1.54132955	     33.06979815	      0.00000000	      0.00000000	    -30.08332317	     -1.84647945	     10.37476790	     89.91717371	    -16.41962864	     32.79688126	     35.34668928	     84.95553035	      0.00000000	      0.00000000	     89.94853967	    -18.66935386	     37.43594819	     49.36808906	     81.66282938	      0.00000000	      0.00000000
      4.16500000	     17.11679776	     -8.46932821	     -7.57741242	     -0.32023177	      0.82269960	     -1.02402722	     40.87021096	      7.31126572	    -12.51947575	      6.36992300	      0.11117613	      0.77972567	      0.00000000	      0.00000000	     25.82141268	    -12.03792889	     -9.85113060	     88.31387324	      1.54136786	     33.05023899	      0.00000000	      0.00000000	    -30.08022012	     -1.87452198	     10.31347036	     89.91720304	    -16.39237109	     32.80414565	     35.34470458	     84.91519624	      0.00000000	      0.00000000	     89.94865152	    -18.64724220	     37.38167784	     49.34953515	     81.53738685	      0.00000000	      0.00000000
